<?xml version="1.0" encoding="UTF-8"?>
<!-- Generator: Adobe Illustrator 16.0.0, SVG Export Plug-In . SVG Version: 6.00 Build 0)  -->
<!DOCTYPE svg PUBLIC "-//W3C//DTD SVG 1.1//EN" "http://www.w3.org/Graphics/SVG/1.1/DTD/svg11.dtd">
<svg version="1.1" id="Layer_1" xmlns="http://www.w3.org/2000/svg" xmlns:xlink="http://www.w3.org/1999/xlink" x="0px" y="0px" width="191.605px" height="216.506px" viewBox="0 0 191.605 216.506" enable-background="new 0 0 191.605 216.506" xml:space="preserve">
<g>
	<path fill="none" d="M48.324,185.126c-0.171-0.083-0.494-0.213-1.009-0.335c-0.331-0.08-0.746-0.155-1.249-0.213   c-0.562-0.065-1.237-0.109-2.046-0.109c-1.581,0-3.377,0.163-5.368,0.48c-1.871,0.299-3.913,0.734-6.121,1.309   c-0.766,0.199-1.497,0.46-2.197,0.768c-6.005,2.639-9.583,8.87-10.876,13.898c-1.076,4.182-0.423,7.088-0.023,7.088   c0.004,0,0.009,0,0.015,0h0.019c2.833,0,8.997,0.016,18.323,0.016c1.521,0,3.084,0.047,4.657,0.049   c1.439,0,2.886,0.025,4.334,0.027c1.062,0.002,2.123,0.015,3.175,0.017c-0.03-0.86-0.04-1.798-0.013-2.806   c0.108-4.1,0.81-9.221,3.066-13.85l-0.357-0.482L48.324,185.126z"/>
	<path fill="none" d="M33.182,129.717c1.104,0,2.181-0.321,3.113-0.93c1.277-0.834,2.153-2.115,2.467-3.607   c0.313-1.493,0.027-3.019-0.807-4.296c-1.059-1.622-2.85-2.591-4.792-2.591c-1.104,0-2.181,0.321-3.112,0.93   c-2.637,1.722-3.382,5.268-1.661,7.904C29.449,128.748,31.24,129.717,33.182,129.717z"/>
	<path fill="none" d="M30.469,149.139c-0.094,0.007-0.188,0.014-0.283,0.021c-1.568,5.403-2.458,11.955-0.281,17.556   c1.259,3.239,2.933,6.872,4.747,10.525c3.124-0.636,5.952-0.989,8.457-1.059l-7.968-10.768L30.469,149.139z"/>
	<path fill="#F2F2F2" d="M113.966,146.793c-2.144,4.387-4.883,8.79-8.194,11.846l-5.501,28.127c4.37-4.442,10.483-6.896,18.22-7.301   c7.129-0.369,12.932,1.274,17.287,4.868l1.506-7.358l0.616-3.01l-1.794-34.126C129.662,143.135,121.967,146.039,113.966,146.793z"/>
	<path fill="#F2F2F2" d="M94.778,163.029C94.777,163.029,94.777,163.029,94.778,163.029c-10.581,0-23.586-9.979-23.588-18.085   c0-3.977,3.252-8.509,10.547-14.68c1.333-1.128,2.657-2.185,3.877-3.128c-2.786-2.775-5.457-5.434-7.775-7.738l-12.35,22.259   l-8.124,32.405l-1.19,7.711l2.077,2.811c4.388-3.766,10.288-5.498,17.579-5.119c8.772,0.458,15.461,3.549,19.883,9.188   c0.134,0.171,0.255,0.347,0.382,0.52l5.396-27.588C99.451,162.532,97.195,163.029,94.778,163.029z"/>
	<path fill="#EC2024" d="M94.778,154.695c1.241,0,2.357-0.235,3.318-0.701c2.163-1.047,4.283-3.584,6.203-6.768l0.226-1.149   l-0.442-0.448c-3.377-3.414-7.903-7.948-12.551-12.59c-6.33,4.805-11.601,9.948-12.03,11.941   C79.76,147.529,87.62,154.695,94.778,154.695L94.778,154.695z"/>
	<path fill="#F2F2F2" d="M144.363,208.012c0.105,0,0.209,0,0.314,0c1.696,0,3.378-0.039,5.017-0.039   c9.325,0,15.49,0.039,18.323,0.039h0.02l0,0c0.004,0,0.01,0,0.014,0c0.4,0,1.052-2.906-0.024-7.09   c-1.444-5.613-5.735-12.8-13.073-14.711c-4.193-1.092-7.791-1.64-10.729-1.728l-1.908,9.258   C144.219,198.867,144.492,205.012,144.363,208.012z"/>
	<path fill="#F2F2F2" d="M13.466,59.397l-0.161,0.076c-2.292,1.018-5.033,6.4-4.998,11.556c0.012,1.809,0.406,3.077,0.861,3.612   c5.626-0.199,28.889-4.198,44.68-7.2c-5.783-4.846-15.603-11.304-26.865-11.304C22.369,56.137,17.821,57.234,13.466,59.397z"/>
	<path fill="#F2F2F2" d="M172.255,8.307c-0.112,0-0.218,0.006-0.317,0.018l-0.178,0.018c-18.678,1.447-27.139,17.812-30.554,27.618   c16.098-5.877,37.751-14.313,42.054-16.718c0.1-0.573-0.084-1.601-0.759-2.924C180.44,12.275,175.365,8.307,172.255,8.307z"/>
	<path d="M189.902,12.545C186.758,6.378,179.298,0,172.255,0c-0.41,0-0.818,0.022-1.216,0.067   c-13.76,1.092-25.072,8.746-32.717,22.137c-1.785,3.128-3.168,6.216-4.227,8.987c-5.269-3.158-12.969-6.582-21.609-6.582   c-1.617,0-3.234,0.122-4.803,0.363c-5.824,0.895-23.545,3.618-35.901,15.474c-6.153,5.903-10.642,13.836-13.47,19.879   C51.434,54.736,40.256,47.83,26.983,47.83c-5.882,0-11.648,1.376-17.141,4.092C3.617,54.759-0.048,63.871,0,71.085   c0.038,5.597,2.301,9.766,6.208,11.438c0.891,0.381,1.793,0.433,2.559,0.433h0c5.877,0,31.797-4.534,47.33-7.491l13.265,35.512   l0.647,0.643c0.037,0.036,0.654,0.648,1.707,1.693l-13.755,24.791l-0.265,0.477l-8.117,32.381l-6.868-9.28l-3.86-13.45   c0.609-0.091,1.199-0.184,1.746-0.279c3.182-0.562,7.54-1.33,7.264-5.238c-0.16-2.247-1.852-3.58-5.029-3.961   c-1.306-0.157-3.058-0.236-5.207-0.236c-0.503,0-1.026,0.006-1.559,0.015l-0.509-1.772c1.668-0.312,3.267-0.942,4.709-1.885   c2.903-1.895,4.895-4.807,5.607-8.199c0.713-3.394,0.062-6.861-1.833-9.764c-2.406-3.686-6.472-5.886-10.878-5.886   c-2.519,0-4.969,0.729-7.085,2.112c-5.993,3.912-7.686,11.97-3.774,17.963c1.167,1.787,2.726,3.221,4.522,4.229   c-0.463,0.884-1.123,2.207-1.845,3.863c-2.539,0.253-4.873,0.559-6.791,0.896c-3.182,0.561-7.541,1.33-7.264,5.238   c0.159,2.247,1.852,3.58,5.03,3.961c1.306,0.157,3.059,0.236,5.209,0.236c0.115,0,0.236-0.002,0.353-0.002   c-1.457,6.238-1.951,13.527,0.646,20.204c1.202,3.093,2.731,6.476,4.393,9.886C15.093,184.91,9.569,198.75,10.703,207.6   c0.841,6.566,5.069,8.906,8.747,8.906l0.169-0.002c2.782-0.051,8.896-0.076,18.172-0.076c4.269,0,8.823-0.241,13.205-0.233   l0.011-0.183h19.467h3.118h8.25h12.315h6.006h5.479h8.25h3.617h25.805l0.014,0.173c2.154-0.002,4.294-0.126,6.366-0.126   c9.276,0,15.39-0.047,18.172-0.047h-0.224v0.246c4,0,8.102-2.215,8.942-8.781c1.256-9.795-5.547-25.65-19.636-29.319   c-4.16-1.083-7.84-1.704-11.09-1.931l0.367-1.652l-2.06-39.406c5.456-3.519,8.962-6.529,9.31-6.832l1.347-1.17l2.146-50.182   l-12.472-33.392c6.556-2.403,14.755-5.485,22.347-8.449c21.296-8.313,22.126-9.457,23.004-10.667   C192.173,21.274,192.191,17.037,189.902,12.545z M9.168,74.641c-0.455-0.535-0.849-1.803-0.861-3.612   c-0.035-5.156,2.705-10.538,4.998-11.556l0.161-0.076c4.355-2.163,8.903-3.26,13.517-3.26c11.262,0,21.083,6.458,26.865,11.304   C38.058,70.443,14.795,74.442,9.168,74.641z M64.358,73.841l-1.273-3.409c0.354-0.966,0.912-2.412,1.663-4.152   c2.375-5.508,6.698-14,12.786-19.84c3.927-3.768,8.603-6.463,13.185-8.402l16.54,40.364l3.404,8.307l5.584,13.625   c-8.803,3.968-16.984,10.425-26.827,18.868c-2.719-2.708-5.258-5.233-7.391-7.354c-2.577-2.561-4.558-4.528-5.522-5.484   l-0.376-1.006L64.358,73.841z M79.501,144.98c0.43-1.993,5.7-7.137,12.03-11.941c4.647,4.642,9.174,9.176,12.551,12.59l0.442,0.448   l-0.226,1.149c-1.92,3.184-4.04,5.721-6.203,6.768c-0.961,0.466-2.077,0.701-3.318,0.701h0   C87.62,154.695,79.76,147.529,79.501,144.98z M43.109,176.183c-2.505,0.069-5.333,0.423-8.457,1.059   c-1.814-3.653-3.488-7.286-4.747-10.525c-2.177-5.601-1.287-12.152,0.281-17.556c0.095-0.008,0.188-0.015,0.283-0.021l4.672,16.276   L43.109,176.183z M30.051,119.223c0.932-0.608,2.008-0.93,3.112-0.93c1.941,0,3.732,0.969,4.792,2.591   c0.833,1.277,1.12,2.803,0.807,4.296c-0.313,1.492-1.19,2.773-2.467,3.607c-0.932,0.608-2.009,0.93-3.113,0.93   c-1.941,0-3.732-0.969-4.791-2.59C26.669,124.49,27.414,120.944,30.051,119.223z M49.945,205.32   c-0.027,1.008-0.017,1.951,0.013,2.812c-1.053-0.002-2.113-0.003-3.175-0.005c-1.449-0.002-2.896-0.004-4.334-0.005   c-1.573-0.001-3.136-0.095-4.657-0.095c-9.326,0-15.49-0.016-18.323-0.016h-0.019c-0.005,0-0.01,0-0.015,0   c-0.4,0-1.052-2.906,0.023-7.088c1.293-5.028,4.872-11.307,10.876-13.945c0.7-0.307,1.431-0.545,2.197-0.744   c2.208-0.574,4.25-0.998,6.121-1.297c1.991-0.317,3.787-0.475,5.368-0.475c0.81,0,1.484,0.047,2.046,0.111   c0.503,0.059,0.917,0.136,1.249,0.215c0.515,0.123,0.838,0.254,1.009,0.336l4.33,5.859l0.357,0.483   C50.755,196.096,50.053,201.221,49.945,205.32z M92.969,208.012H75.703h-3.114H58.283c0,0-0.001,0.061-0.001,0.046   c-0.098-2.312-0.028-5.441,0.677-8.589c0.584-2.607,1.603-5.172,3.335-7.231c0.289-0.344,0.596-0.653,0.917-0.957   c0.098-0.093,0.207-0.165,0.307-0.255c2.504-2.215,5.912-3.308,10.382-3.308c0.486,0,0.991,0.015,1.5,0.042   c4.357,0.227,7.923,1.278,10.66,3.127c1.189,0.803,2.223,1.662,3.095,2.768C92.701,198.152,93.115,204.012,92.969,208.012z    M96.097,189.172c-0.127-0.173-0.249-0.349-0.382-0.52c-4.422-5.639-11.111-8.729-19.883-9.188   c-7.291-0.379-13.191,1.354-17.579,5.119l-2.077-2.811l1.19-7.711l8.124-32.405l12.35-22.259c2.318,2.305,4.989,4.963,7.775,7.738   c-1.22,0.943-2.544,2-3.877,3.128c-7.294,6.171-10.547,10.703-10.547,14.68c0.001,8.106,13.007,18.085,23.587,18.085   c0,0,0,0,0.001,0c2.417,0,4.673-0.497,6.714-1.445L96.097,189.172z M136.051,208.135c-0.752,0.002-1.498,0.003-2.238,0.004   c-1.814,0.004-3.573,0.008-5.258,0.014c-0.539,0-1.078-0.091-1.6-0.09l-0.047-0.051h-12.543h-2.584h-10.422   c-0.139-4,0.277-9.853,3.784-14.326c0.929-1.184,2.046-2.148,3.339-2.988c2.707-1.76,6.199-2.738,10.441-2.96   c0.508-0.026,1.013-0.028,1.499-0.028c4.18,0,7.438,0.954,9.892,2.888c0.615,0.485,1.183,1.032,1.697,1.642   c1.979,2.341,3.035,5.346,3.573,8.287C136.098,203.326,136.142,206.072,136.051,208.135z M137.283,176.975l-1.506,7.358   c-4.355-3.594-10.158-5.237-17.287-4.868c-7.736,0.404-13.85,2.858-18.22,7.301l5.501-28.127c3.312-3.056,6.051-7.459,8.194-11.846   c8.001-0.754,15.696-3.658,22.14-6.954l1.794,34.126L137.283,176.975z M144.225,184.506c2.938,0.088,6.535,0.66,10.729,1.752   c7.338,1.91,11.629,9.051,13.073,14.664c1.076,4.184,0.425,7.09,0.024,7.09c-0.004,0-0.01,0-0.014,0l0,0h-0.02   c-2.833,0-8.998-0.039-18.323-0.039c-1.639,0-3.32,0.039-5.017,0.039c-0.105,0-0.209,0-0.314,0c0.129-3-0.145-9.133-2.047-14.259   L144.225,184.506z M146.682,123.175c-0.735,0.583-1.756,1.366-3.014,2.272c-2.092,1.508-4.848,3.355-8.046,5.186   c-5.121,2.932-11.39,5.812-17.938,7.196c-2.532,0.535-5.105,0.854-7.673,0.854c-0.381,0-0.762-0.007-1.139-0.021   c-0.088-0.089-0.18-0.182-0.269-0.271c-1.79-1.806-3.821-3.845-5.977-6.003c-3.255-3.26-6.786-6.785-10.187-10.175   c-0.146-0.146-0.294-0.294-0.44-0.439c11.593-9.94,20.555-16.845,30.932-20.135c2.684-0.851,5.463-1.458,8.405-1.814   c4.883-0.593,10.218-0.496,16.327,0.344L146.682,123.175z M148.599,78.313l-0.778,18.208c-6.848-0.912-12.799-0.919-18.236-0.114   c-2.902,0.43-5.66,1.089-8.324,1.972c-0.554,0.184-1.104,0.375-1.65,0.577l-5.02-12.247l-3.404-8.307L94.108,36.727   c6.345-2.239,12.084-3.121,14.837-3.544c1.152-0.177,2.344-0.267,3.541-0.267c7.723,0,14.779,3.676,19.042,6.482   c1.579,1.039,2.776,1.959,3.479,2.529l0.137,0.364l0.085,0.229l1.454,3.891L148.599,78.313z M183.26,19.242   c-4.303,2.405-25.956,10.841-42.054,16.718c3.415-9.806,11.876-26.17,30.554-27.618l0.178-0.018c0.1-0.012,0.205-0.018,0.317-0.018   c3.11,0,8.186,3.968,10.246,8.011C183.176,17.641,183.359,18.669,183.26,19.242z"/>
	<path fill="#F2F2F2" d="M131.338,99.825c-2.942,0.357-5.722,0.964-8.405,1.814c-10.377,3.29-19.339,10.194-30.932,20.135   c0.146,0.146,0.294,0.293,0.44,0.439c3.401,3.39,6.932,6.915,10.187,10.175c2.155,2.158,4.187,4.197,5.977,6.003   c0.089,0.089,0.181,0.182,0.269,0.271c0.377,0.014,0.758,0.021,1.139,0.021c2.567,0,5.141-0.318,7.673-0.854   c6.548-1.384,12.816-4.265,17.938-7.196c3.198-1.83,5.954-3.678,8.046-5.186c1.258-0.906,2.278-1.689,3.014-2.272l0.983-23.005   C141.556,99.329,136.221,99.232,131.338,99.825z"/>
	<path fill="#F2F2F2" d="M76.506,106.363c0.964,0.957,2.945,2.924,5.522,5.484c2.133,2.121,4.672,4.646,7.391,7.354   c9.843-8.442,18.024-14.899,26.827-18.868l-5.584-13.625l-3.404-8.307l-16.54-40.364c-4.582,1.939-9.257,4.634-13.185,8.402   c-6.087,5.84-10.411,14.332-12.786,19.84c-0.75,1.74-1.308,3.186-1.663,4.152l1.273,3.409l11.772,31.516L76.506,106.363z"/>
	<path fill="#F2F2F2" d="M135.229,42.52l-0.085-0.229l-0.137-0.364c-0.703-0.569-1.9-1.49-3.479-2.529   c-4.263-2.806-11.319-6.482-19.042-6.482c-1.197,0-2.389,0.09-3.541,0.267c-2.753,0.423-8.492,1.305-14.837,3.544l17.078,41.675   l3.404,8.307l5.02,12.247c0.546-0.202,1.097-0.394,1.65-0.577c2.664-0.883,5.422-1.542,8.324-1.972   c5.438-0.805,11.389-0.798,18.236,0.114l0.778-18.208l-11.915-31.902L135.229,42.52z"/>
</g>
<g>
	<path fill="#FAEC71" d="M86.619,81.294c-1.104,0-2.181,0.321-3.113,0.93c-1.277,0.834-2.154,2.115-2.467,3.608   s-0.027,3.019,0.807,4.296c1.059,1.622,2.85,2.59,4.791,2.59c1.105,0,2.181-0.322,3.113-0.93c1.278-0.833,2.154-2.115,2.468-3.608   c0.313-1.493,0.027-3.019-0.807-4.296C90.351,82.262,88.56,81.294,86.619,81.294z"/>
	<path d="M97.497,79.912c-2.406-3.686-6.472-5.886-10.877-5.886c-2.52,0-4.97,0.73-7.086,2.112c-2.903,1.895-4.895,4.807-5.608,8.2   c-0.713,3.393-0.062,6.86,1.833,9.763c2.406,3.686,6.472,5.886,10.877,5.886c2.52,0,4.97-0.73,7.086-2.112   c2.904-1.895,4.896-4.807,5.608-8.2C100.043,86.282,99.392,82.815,97.497,79.912z M92.217,88.18   c-0.314,1.493-1.19,2.774-2.468,3.608c-0.932,0.608-2.008,0.93-3.113,0.93c-1.941,0-3.732-0.968-4.791-2.59   c-0.834-1.278-1.12-2.804-0.807-4.296s1.19-2.774,2.467-3.608c0.932-0.608,2.009-0.93,3.113-0.93c1.941,0,3.732,0.968,4.791,2.59   C92.244,85.162,92.53,86.688,92.217,88.18z"/>
</g>
<g>
	<path fill="#B3E1EB" d="M133.17,69.025c-1.059-1.622-2.85-2.59-4.791-2.59c-1.104,0-2.181,0.322-3.112,0.93   c-1.278,0.833-2.153,2.115-2.468,3.608c-0.313,1.493-0.027,3.019,0.807,4.296c1.059,1.622,2.85,2.59,4.791,2.59   c1.105,0,2.182-0.321,3.113-0.93C134.146,75.208,134.892,71.662,133.17,69.025z"/>
	<path d="M139.258,65.052c-2.406-3.686-6.473-5.886-10.879-5.886c-2.519,0-4.969,0.73-7.086,2.112   c-2.902,1.896-4.895,4.807-5.607,8.2s-0.062,6.86,1.834,9.763c2.405,3.686,6.472,5.886,10.877,5.886c2.52,0,4.97-0.73,7.086-2.112   C141.477,79.104,143.169,71.045,139.258,65.052z M131.51,76.929c-0.932,0.608-2.008,0.93-3.113,0.93   c-1.941,0-3.732-0.968-4.791-2.59c-0.834-1.277-1.12-2.803-0.807-4.296c0.314-1.493,1.189-2.774,2.468-3.608   c0.932-0.608,2.009-0.93,3.112-0.93c1.941,0,3.732,0.969,4.791,2.59C134.892,71.662,134.146,75.208,131.51,76.929z"/>
</g>
<circle cx="98.804" cy="41.154" r="1.858"/>
<circle cx="101.919" cy="47.904" r="1.858"/>
<circle cx="104.515" cy="54.134" r="1.858"/>
<path fill="none" d="M131.338,99.825c-2.942,0.357-5.722,0.964-8.405,1.814c-10.377,3.29-19.339,10.194-30.932,20.135  c0.146,0.146,0.294,0.293,0.44,0.439c3.401,3.39,6.932,6.915,10.187,10.175c2.155,2.158,4.187,4.197,5.977,6.003  c0.089,0.089,0.181,0.182,0.269,0.271c0.377,0.014,0.758,0.021,1.139,0.021c2.567,0,5.141-0.318,7.673-0.854  c6.548-1.384,12.816-4.265,17.938-7.196c3.198-1.83,5.954-3.678,8.046-5.186c1.258-0.906,2.278-1.689,3.014-2.272l0.983-23.005  C141.556,99.329,136.221,99.232,131.338,99.825z"/>
<path fill="none" d="M79.501,144.98c0.259,2.549,8.119,9.715,15.276,9.715h0c1.241,0,2.357-0.235,3.318-0.701  c2.355-1.14,4.66-4.046,6.713-7.63l-0.727-0.735c-3.377-3.414-7.903-7.948-12.551-12.59  C85.201,137.844,79.931,142.987,79.501,144.98z"/>
<path fill="none" d="M114.59,86.709l5.02,12.247c0.546-0.202,1.097-0.394,1.65-0.577c2.664-0.883,5.422-1.542,8.324-1.972  c5.438-0.805,11.389-0.798,18.236,0.114l0.778-18.208l-13.591-36.386c-2.602-2.106-11.939-9.011-22.521-9.011  c-1.197,0-2.389,0.09-3.541,0.267c-2.753,0.423-8.492,1.305-14.837,3.544l17.078,41.675L114.59,86.709z"/>
<path fill="none" d="M89.419,119.202c9.843-8.442,18.024-14.899,26.827-18.868l-5.584-13.625l-3.404-8.307l-16.54-40.364  c-4.582,1.939-9.257,4.634-13.185,8.402c-8.011,7.686-12.971,19.968-14.448,23.992l13.045,34.925l0.376,1.006  c0.964,0.957,2.945,2.924,5.522,5.484C84.161,113.969,86.7,116.494,89.419,119.202z"/>
<polygon points="105.619,216.043 113.893,216.012 105.643,216.012 "/>
<path fill="none" d="M13.466,59.397l-0.161,0.076c-2.292,1.018-5.033,6.4-4.998,11.556c0.012,1.809,0.406,3.077,0.861,3.612  c5.626-0.199,28.889-4.198,44.68-7.2c-5.783-4.846-15.603-11.304-26.865-11.304C22.369,56.137,17.821,57.234,13.466,59.397z"/>
<path fill="none" d="M110.662,86.709l-3.404-8.307l-16.54-40.364c-4.582,1.939-9.257,4.634-13.185,8.402  c-6.087,5.84-10.411,14.332-12.786,19.84c-0.75,1.74-1.308,3.186-1.663,4.152l1.273,3.409l11.772,31.516l0.376,1.006  c0.964,0.957,2.945,2.924,5.522,5.484c2.133,2.121,4.672,4.646,7.391,7.354c9.843-8.442,18.024-14.899,26.827-18.868L110.662,86.709  z"/>
<path fill="none" d="M131.338,99.825c-2.942,0.357-5.722,0.964-8.405,1.814c-10.377,3.29-19.339,10.194-30.932,20.135  c0.146,0.146,0.294,0.293,0.44,0.439c3.401,3.39,6.932,6.915,10.187,10.175c2.155,2.158,4.187,4.197,5.977,6.003  c0.089,0.089,0.181,0.182,0.269,0.271c0.377,0.014,0.758,0.021,1.139,0.021c2.567,0,5.141-0.318,7.673-0.854  c6.548-1.384,12.816-4.265,17.938-7.196c3.198-1.83,5.954-3.678,8.046-5.186c1.258-0.906,2.278-1.689,3.014-2.272l0.983-23.005  C141.556,99.329,136.221,99.232,131.338,99.825z"/>
<path fill="none" d="M172.255,8.307c-0.112,0-0.218,0.006-0.317,0.018l-0.178,0.018c-18.678,1.447-27.139,17.812-30.554,27.618  c16.098-5.877,37.751-14.313,42.054-16.718c0.1-0.573-0.084-1.601-0.759-2.924C180.44,12.275,175.365,8.307,172.255,8.307z"/>
<circle cx="94.131" cy="180.294" r="1.858"/>
<circle cx="96.208" cy="173.026" r="1.858"/>
<circle cx="97.766" cy="166.277" r="1.858"/>
<circle cx="141.896" cy="102.937" r="1.858"/>
<circle cx="135.146" cy="102.937" r="1.858"/>
<path fill="#F2F2F2" d="M132.012,192.148c-2.57-3.041-6.361-4.475-11.589-4.475c-0.486,0-0.991,0.037-1.499,0.063  c-6.27,0.327-10.905,2.271-13.78,5.937c-3.507,4.474-3.923,10.338-3.784,14.338h10.422h2.584h21.684  C136.241,204.012,135.892,196.74,132.012,192.148z"/>
<path fill="#F2F2F2" d="M92.969,208.012c0.146-4-0.268-9.859-3.816-14.357c-2.876-3.646-7.504-5.613-13.754-5.939  c-0.509-0.027-1.014-0.018-1.5-0.018c-5.239,0-9.035,1.404-11.605,4.459c-3.837,4.561-4.193,11.855-4.01,15.855h14.307H92.969z"/>
<path fill="#F2F2F2" d="M44.02,184.469c-3.065,0-6.931,0.602-11.489,1.789c-7.339,1.911-11.629,9.052-13.073,14.666  c-1.076,4.182-0.423,7.088-0.023,7.088c0.004,0,0.009,0,0.015,0h0.019c2.833,0,8.997,0.016,18.323,0.016  c3.933,0,8.107,0.051,12.167,0.059c-0.03-0.861-0.04-1.78-0.013-2.789c0.108-4.1,0.81-9.213,3.066-13.841l-4.687-6.336  C47.92,184.926,46.679,184.469,44.02,184.469z"/>
<path fill="none" d="M75.398,187.761c-0.509-0.026-1.014-0.04-1.5-0.04c-4.649,0-8.16,1.173-10.689,3.571  c-0.32,0.304-0.627,0.625-0.917,0.969c-1.732,2.06-2.57,4.647-3.154,7.255c-0.705,3.146-0.496,6.229-0.496,8.542  c0,0.015,0-0.046,0-0.046h13.947h3.114h17.266c0.146-4-0.268-9.859-3.816-14.357C86.277,190.008,81.649,188.087,75.398,187.761z"/>
<path fill="none" d="M154.953,186.258c-4.193-1.092-7.791-1.682-10.729-1.771l-1.908,9.321c1.902,5.125,2.176,10.534,2.047,14.314  c1.803-0.002,3.592-0.096,5.331-0.096c9.325,0,15.49-0.016,18.323-0.016h0.02l0,0c0.004,0,0.01,0,0.014,0  c0.4,0,1.052-2.906-0.024-7.09C166.582,195.309,162.291,188.168,154.953,186.258z"/>
<path fill="none" d="M120.423,187.721c-0.486,0-0.991,0.014-1.499,0.04c-6.27,0.327-10.905,2.259-13.78,5.925  c-3.507,4.474-3.923,10.326-3.784,14.326h10.422h2.584h12.543l0.047,0.051c2.811-0.008,5.904,0.031,9.096,0.025  c0.187-4.227-0.178-11.3-4.039-15.869C129.441,189.177,125.65,187.721,120.423,187.721z"/>
<path fill="#F2F2F2" d="M30.332,148.658c-1.658,5.496-2.671,12.284-0.426,18.058c1.259,3.239,2.933,6.872,4.747,10.525  c3.124-0.636,5.952-0.989,8.457-1.059l-7.968-10.768L30.332,148.658z"/>
<path fill="none" d="M34.652,177.241c3.124-0.636,5.952-0.989,8.457-1.059l-7.968-10.768l-4.672-16.276  c-0.094,0.007-0.188,0.014-0.283,0.021c-1.568,5.403-2.458,11.955-0.281,17.556C31.165,169.955,32.838,173.588,34.652,177.241z"/>
<path fill="none" d="M75.398,187.761c-0.509-0.026-1.014-0.04-1.5-0.04c-4.649,0-8.16,1.173-10.689,3.571  c-0.32,0.304-0.627,0.625-0.917,0.969c-1.732,2.06-2.57,4.647-3.154,7.255c-0.705,3.146-0.496,6.229-0.496,8.542  c0,0.015,0-0.046,0-0.046h13.947h3.114h17.266c0.146-4-0.268-9.859-3.816-14.357C86.277,190.008,81.649,188.087,75.398,187.761z"/>
<path fill="none" d="M154.953,186.258c-4.193-1.092-7.791-1.682-10.729-1.771l-1.908,9.321c1.902,5.125,2.176,10.534,2.047,14.314  c1.803-0.002,3.592-0.096,5.331-0.096c9.325,0,15.49-0.016,18.323-0.016h0.02l0,0c0.004,0,0.01,0,0.014,0  c0.4,0,1.052-2.906-0.024-7.09C166.582,195.309,162.291,188.168,154.953,186.258z"/>
<path fill="none" d="M120.423,187.721c-0.486,0-0.991,0.014-1.499,0.04c-6.27,0.327-10.905,2.259-13.78,5.925  c-3.507,4.474-3.923,10.326-3.784,14.326h10.422h2.584h12.543l0.047,0.051c2.811-0.008,5.904,0.031,9.096,0.025  c0.187-4.227-0.178-11.3-4.039-15.869C129.441,189.177,125.65,187.721,120.423,187.721z"/>
<path fill="#8BC540" d="M36.295,128.787c1.277-0.834,2.153-2.115,2.467-3.607c0.313-1.493,0.027-3.019-0.807-4.296  c-1.059-1.622-2.85-2.591-4.792-2.591c-1.104,0-2.181,0.321-3.112,0.93c-2.637,1.722-3.382,5.268-1.661,7.904  c1.059,1.621,2.85,2.59,4.791,2.59C34.286,129.717,35.363,129.396,36.295,128.787z"/>
<path d="M108.186,123.704c0,0,21.818-11.248,28.846-12.353C138.522,117.601,122.514,135.426,108.186,123.704z"/>
<g>
</g>
<g>
</g>
<g>
</g>
<g>
</g>
<g>
</g>
<g>
</g>
<g>
</g>
<g>
</g>
<g>
</g>
<g>
</g>
<g>
</g>
<g>
</g>
<g>
</g>
<g>
</g>
<g>
</g>
</svg>