<?xml version="1.0" encoding="UTF-8" standalone="no"?>
<!-- Generator: Adobe Illustrator 16.0.0, SVG Export Plug-In . SVG Version: 6.00 Build 0)  -->

<svg
   xmlns:dc="http://purl.org/dc/elements/1.1/"
   xmlns:cc="http://creativecommons.org/ns#"
   xmlns:rdf="http://www.w3.org/1999/02/22-rdf-syntax-ns#"
   xmlns:svg="http://www.w3.org/2000/svg"
   xmlns="http://www.w3.org/2000/svg"
   xmlns:sodipodi="http://sodipodi.sourceforge.net/DTD/sodipodi-0.dtd"
   xmlns:inkscape="http://www.inkscape.org/namespaces/inkscape"
   version="1.1"
   id="Layer_1"
   x="0px"
   y="0px"
   width="228.59738"
   height="244.19315"
   viewBox="0 0 228.59739 244.19315"
   enable-background="new 0 0 191.605 216.506"
   xml:space="preserve"
   inkscape:version="0.48.3.1 r9886"
   sodipodi:docname="tindie-dog-bw.svg"
   inkscape:export-filename="/home/robert/KiCad-Logos/tindie/source/tindie-dog-bw.png"
   inkscape:export-xdpi="314.97"
   inkscape:export-ydpi="314.97"><metadata
   id="metadata3327"><rdf:RDF><cc:Work
       rdf:about=""><dc:format>image/svg+xml</dc:format><dc:type
         rdf:resource="http://purl.org/dc/dcmitype/StillImage" /><dc:title></dc:title></cc:Work></rdf:RDF></metadata><defs
   id="defs3325" /><sodipodi:namedview
   pagecolor="#ffffff"
   bordercolor="#666666"
   borderopacity="1"
   objecttolerance="10"
   gridtolerance="10"
   guidetolerance="10"
   inkscape:pageopacity="0"
   inkscape:pageshadow="2"
   inkscape:window-width="1280"
   inkscape:window-height="737"
   id="namedview3323"
   showgrid="false"
   inkscape:zoom="1.0900391"
   inkscape:cx="183.6854"
   inkscape:cy="60.923137"
   inkscape:window-x="-2"
   inkscape:window-y="-3"
   inkscape:window-maximized="1"
   inkscape:current-layer="Layer_1"
   fit-margin-top="0"
   fit-margin-left="0"
   fit-margin-right="0"
   fit-margin-bottom="0" />

































<g
   id="g3293"
   transform="translate(18.496307,13.843572)">
</g>
<g
   id="g3295"
   transform="translate(18.496307,13.843572)">
</g>
<g
   id="g3297"
   transform="translate(18.496307,13.843572)">
</g>
<g
   id="g3299"
   transform="translate(18.496307,13.843572)">
</g>
<g
   id="g3301"
   transform="translate(18.496307,13.843572)">
</g>
<g
   id="g3303"
   transform="translate(18.496307,13.843572)">
</g>
<g
   id="g3305"
   transform="translate(18.496307,13.843572)">
</g>
<g
   id="g3307"
   transform="translate(18.496307,13.843572)">
</g>
<g
   id="g3309"
   transform="translate(18.496307,13.843572)">
</g>
<g
   id="g3311"
   transform="translate(18.496307,13.843572)">
</g>
<g
   id="g3313"
   transform="translate(18.496307,13.843572)">
</g>
<g
   id="g3315"
   transform="translate(18.496307,13.843572)">
</g>
<g
   id="g3317"
   transform="translate(18.496307,13.843572)">
</g>
<g
   id="g3319"
   transform="translate(18.496307,13.843572)">
</g>
<g
   id="g3321"
   transform="translate(18.496307,13.843572)">
</g>
<g
   id="g3272"><g
     transform="translate(18.496307,13.843572)"
     id="g4097"><g
       id="g3193">
	<path
   style="fill:none"
   inkscape:connector-curvature="0"
   d="m 48.324,185.126 c -0.171,-0.083 -0.494,-0.213 -1.009,-0.335 -0.331,-0.08 -0.746,-0.155 -1.249,-0.213 -0.562,-0.065 -1.237,-0.109 -2.046,-0.109 -1.581,0 -3.377,0.163 -5.368,0.48 -1.871,0.299 -3.913,0.734 -6.121,1.309 -0.766,0.199 -1.497,0.46 -2.197,0.768 -6.005,2.639 -9.583,8.87 -10.876,13.898 -1.076,4.182 -0.423,7.088 -0.023,7.088 0.004,0 0.009,0 0.015,0 h 0.019 c 2.833,0 8.997,0.016 18.323,0.016 1.521,0 3.084,0.047 4.657,0.049 1.439,0 2.886,0.025 4.334,0.027 1.062,0.002 2.123,0.015 3.175,0.017 -0.03,-0.86 -0.04,-1.798 -0.013,-2.806 0.108,-4.1 0.81,-9.221 3.066,-13.85 l -0.357,-0.482 -4.33,-5.857 z"
   id="path3195" />
	<path
   style="fill:none"
   inkscape:connector-curvature="0"
   d="m 33.182,129.717 c 1.104,0 2.181,-0.321 3.113,-0.93 1.277,-0.834 2.153,-2.115 2.467,-3.607 0.313,-1.493 0.027,-3.019 -0.807,-4.296 -1.059,-1.622 -2.85,-2.591 -4.792,-2.591 -1.104,0 -2.181,0.321 -3.112,0.93 -2.637,1.722 -3.382,5.268 -1.661,7.904 1.059,1.621 2.85,2.59 4.792,2.59 z"
   id="path3197" />
	<path
   style="fill:none"
   inkscape:connector-curvature="0"
   d="m 30.469,149.139 c -0.094,0.007 -0.188,0.014 -0.283,0.021 -1.568,5.403 -2.458,11.955 -0.281,17.556 1.259,3.239 2.933,6.872 4.747,10.525 3.124,-0.636 5.952,-0.989 8.457,-1.059 l -7.968,-10.768 -4.672,-16.275 z"
   id="path3199" />
	
	
	
	
	
	
	<path
   inkscape:connector-curvature="0"
   d="M 189.902,12.545 C 186.758,6.378 179.298,0 172.255,0 c -0.41,0 -0.818,0.022 -1.216,0.067 -13.76,1.092 -25.072,8.746 -32.717,22.137 -1.785,3.128 -3.168,6.216 -4.227,8.987 -5.269,-3.158 -12.969,-6.582 -21.609,-6.582 -1.617,0 -3.234,0.122 -4.803,0.363 C 101.859,25.867 84.138,28.59 71.782,40.446 65.629,46.349 61.14,54.282 58.312,60.325 51.434,54.736 40.256,47.83 26.983,47.83 21.101,47.83 15.335,49.206 9.842,51.922 3.617,54.759 -0.048,63.871 0,71.085 c 0.038,5.597 2.301,9.766 6.208,11.438 0.891,0.381 1.793,0.433 2.559,0.433 h 0 c 5.877,0 31.797,-4.534 47.33,-7.491 l 13.265,35.512 0.647,0.643 c 0.037,0.036 0.654,0.648 1.707,1.693 l -13.755,24.791 -0.265,0.477 -8.117,32.381 -6.868,-9.28 -3.86,-13.45 c 0.609,-0.091 1.199,-0.184 1.746,-0.279 3.182,-0.562 7.54,-1.33 7.264,-5.238 -0.16,-2.247 -1.852,-3.58 -5.029,-3.961 -1.306,-0.157 -3.058,-0.236 -5.207,-0.236 -0.503,0 -1.026,0.006 -1.559,0.015 l -0.509,-1.772 c 1.668,-0.312 3.267,-0.942 4.709,-1.885 2.903,-1.895 4.895,-4.807 5.607,-8.199 0.713,-3.394 0.062,-6.861 -1.833,-9.764 -2.406,-3.686 -6.472,-5.886 -10.878,-5.886 -2.519,0 -4.969,0.729 -7.085,2.112 -5.993,3.912 -7.686,11.97 -3.774,17.963 1.167,1.787 2.726,3.221 4.522,4.229 -0.463,0.884 -1.123,2.207 -1.845,3.863 -2.539,0.253 -4.873,0.559 -6.791,0.896 -3.182,0.561 -7.541,1.33 -7.264,5.238 0.159,2.247 1.852,3.58 5.03,3.961 1.306,0.157 3.059,0.236 5.209,0.236 0.115,0 0.236,-0.002 0.353,-0.002 -1.457,6.238 -1.951,13.527 0.646,20.204 1.202,3.093 2.731,6.476 4.393,9.886 -11.463,5.297 -16.987,19.137 -15.853,27.987 0.841,6.566 5.069,8.906 8.747,8.906 l 0.169,-0.002 c 2.782,-0.051 8.896,-0.076 18.172,-0.076 4.269,0 8.823,-0.241 13.205,-0.233 l 0.011,-0.183 h 19.467 3.118 8.25 12.315 6.006 5.479 8.25 3.617 25.805 l 0.014,0.173 c 2.154,-0.002 4.294,-0.126 6.366,-0.126 9.276,0 15.39,-0.047 18.172,-0.047 h -0.224 v 0.246 c 4,0 8.102,-2.215 8.942,-8.781 1.256,-9.795 -5.547,-25.65 -19.636,-29.319 -4.16,-1.083 -7.84,-1.704 -11.09,-1.931 l 0.367,-1.652 -2.06,-39.406 c 5.456,-3.519 8.962,-6.529 9.31,-6.832 l 1.347,-1.17 2.146,-50.182 -12.472,-33.392 c 6.556,-2.403 14.755,-5.485 22.347,-8.449 21.296,-8.313 22.126,-9.457 23.004,-10.667 2.326,-3.203 2.344,-7.44 0.055,-11.932 z M 9.168,74.641 C 8.713,74.106 8.319,72.838 8.307,71.029 8.272,65.873 11.012,60.491 13.305,59.473 l 0.161,-0.076 c 4.355,-2.163 8.903,-3.26 13.517,-3.26 11.262,0 21.083,6.458 26.865,11.304 -15.79,3.002 -39.053,7.001 -44.68,7.2 z m 55.19,-0.8 -1.273,-3.409 c 0.354,-0.966 0.912,-2.412 1.663,-4.152 2.375,-5.508 6.698,-14 12.786,-19.84 3.927,-3.768 8.603,-6.463 13.185,-8.402 l 16.54,40.364 3.404,8.307 5.584,13.625 c -8.803,3.968 -16.984,10.425 -26.827,18.868 -2.719,-2.708 -5.258,-5.233 -7.391,-7.354 -2.577,-2.561 -4.558,-4.528 -5.522,-5.484 L 76.131,105.358 64.358,73.841 z m 15.143,71.139 c 0.43,-1.993 5.7,-7.137 12.03,-11.941 4.647,4.642 9.174,9.176 12.551,12.59 l 0.442,0.448 -0.226,1.149 c -1.92,3.184 -4.04,5.721 -6.203,6.768 -0.961,0.466 -2.077,0.701 -3.318,0.701 h 0 c -7.157,0 -15.017,-7.166 -15.276,-9.715 z m -36.392,31.203 c -2.505,0.069 -5.333,0.423 -8.457,1.059 -1.814,-3.653 -3.488,-7.286 -4.747,-10.525 -2.177,-5.601 -1.287,-12.152 0.281,-17.556 0.095,-0.008 0.188,-0.015 0.283,-0.021 l 4.672,16.276 7.968,10.767 z m -13.058,-56.96 c 0.932,-0.608 2.008,-0.93 3.112,-0.93 1.941,0 3.732,0.969 4.792,2.591 0.833,1.277 1.12,2.803 0.807,4.296 -0.313,1.492 -1.19,2.773 -2.467,3.607 -0.932,0.608 -2.009,0.93 -3.113,0.93 -1.941,0 -3.732,-0.969 -4.791,-2.59 -1.722,-2.637 -0.977,-6.183 1.66,-7.904 z m 19.894,86.097 c -0.027,1.008 -0.017,1.951 0.013,2.812 -1.053,-0.002 -2.113,-0.003 -3.175,-0.005 -1.449,-0.002 -2.896,-0.004 -4.334,-0.005 -1.573,-0.001 -3.136,-0.095 -4.657,-0.095 -9.326,0 -15.49,-0.016 -18.323,-0.016 H 19.45 c -0.005,0 -0.01,0 -0.015,0 -0.4,0 -1.052,-2.906 0.023,-7.088 1.293,-5.028 4.872,-11.307 10.876,-13.945 0.7,-0.307 1.431,-0.545 2.197,-0.744 2.208,-0.574 4.25,-0.998 6.121,-1.297 1.991,-0.317 3.787,-0.475 5.368,-0.475 0.81,0 1.484,0.047 2.046,0.111 0.503,0.059 0.917,0.136 1.249,0.215 0.515,0.123 0.838,0.254 1.009,0.336 l 4.33,5.859 0.357,0.483 c -2.256,4.63 -2.958,9.755 -3.066,13.854 z m 43.024,2.692 H 75.703 72.589 58.283 c 0,0 -0.001,0.061 -0.001,0.046 -0.098,-2.312 -0.028,-5.441 0.677,-8.589 0.584,-2.607 1.603,-5.172 3.335,-7.231 0.289,-0.344 0.596,-0.653 0.917,-0.957 0.098,-0.093 0.207,-0.165 0.307,-0.255 2.504,-2.215 5.912,-3.308 10.382,-3.308 0.486,0 0.991,0.015 1.5,0.042 4.357,0.227 7.923,1.278 10.66,3.127 1.189,0.803 2.223,1.662 3.095,2.768 3.546,4.497 3.96,10.357 3.814,14.357 z m 3.128,-18.84 c -0.127,-0.173 -0.249,-0.349 -0.382,-0.52 -4.422,-5.639 -11.111,-8.729 -19.883,-9.188 -7.291,-0.379 -13.191,1.354 -17.579,5.119 l -2.077,-2.811 1.19,-7.711 8.124,-32.405 12.35,-22.259 c 2.318,2.305 4.989,4.963 7.775,7.738 -1.22,0.943 -2.544,2 -3.877,3.128 -7.294,6.171 -10.547,10.703 -10.547,14.68 10e-4,8.106 13.007,18.085 23.587,18.085 0,0 0,0 10e-4,0 2.417,0 4.673,-0.497 6.714,-1.445 l -5.396,27.589 z m 39.954,18.963 c -0.752,0.002 -1.498,0.003 -2.238,0.004 -1.814,0.004 -3.573,0.008 -5.258,0.014 -0.539,0 -1.078,-0.091 -1.6,-0.09 l -0.047,-0.051 h -12.543 -2.584 -10.422 c -0.139,-4 0.277,-9.853 3.784,-14.326 0.929,-1.184 2.046,-2.148 3.339,-2.988 2.707,-1.76 6.199,-2.738 10.441,-2.96 0.508,-0.026 1.013,-0.028 1.499,-0.028 4.18,0 7.438,0.954 9.892,2.888 0.615,0.485 1.183,1.032 1.697,1.642 1.979,2.341 3.035,5.346 3.573,8.287 0.514,2.799 0.558,5.545 0.467,7.608 z m 1.232,-31.16 -1.506,7.358 c -4.355,-3.594 -10.158,-5.237 -17.287,-4.868 -7.736,0.404 -13.85,2.858 -18.22,7.301 l 5.501,-28.127 c 3.312,-3.056 6.051,-7.459 8.194,-11.846 8.001,-0.754 15.696,-3.658 22.14,-6.954 l 1.794,34.126 -0.616,3.01 z m 6.942,7.531 c 2.938,0.088 6.535,0.66 10.729,1.752 7.338,1.91 11.629,9.051 13.073,14.664 1.076,4.184 0.425,7.09 0.024,7.09 -0.004,0 -0.01,0 -0.014,0 l 0,0 h -0.02 c -2.833,0 -8.998,-0.039 -18.323,-0.039 -1.639,0 -3.32,0.039 -5.017,0.039 -0.105,0 -0.209,0 -0.314,0 0.129,-3 -0.145,-9.133 -2.047,-14.259 l 1.909,-9.247 z m 2.457,-61.331 c -0.735,0.583 -1.756,1.366 -3.014,2.272 -2.092,1.508 -4.848,3.355 -8.046,5.186 -5.121,2.932 -11.39,5.812 -17.938,7.196 -2.532,0.535 -5.105,0.854 -7.673,0.854 -0.381,0 -0.762,-0.007 -1.139,-0.021 -0.088,-0.089 -0.18,-0.182 -0.269,-0.271 -1.79,-1.806 -3.821,-3.845 -5.977,-6.003 -3.255,-3.26 -6.786,-6.785 -10.187,-10.175 -0.146,-0.146 -0.294,-0.294 -0.44,-0.439 11.593,-9.94 20.555,-16.845 30.932,-20.135 2.684,-0.851 5.463,-1.458 8.405,-1.814 4.883,-0.593 10.218,-0.496 16.327,0.344 l -0.981,23.006 z m 1.917,-44.862 -0.778,18.208 c -6.848,-0.912 -12.799,-0.919 -18.236,-0.114 -2.902,0.43 -5.66,1.089 -8.324,1.972 -0.554,0.184 -1.104,0.375 -1.65,0.577 l -5.02,-12.247 -3.404,-8.307 -17.079,-41.675 c 6.345,-2.239 12.084,-3.121 14.837,-3.544 1.152,-0.177 2.344,-0.267 3.541,-0.267 7.723,0 14.779,3.676 19.042,6.482 1.579,1.039 2.776,1.959 3.479,2.529 l 0.137,0.364 0.085,0.229 1.454,3.891 11.916,31.902 z M 183.26,19.242 c -4.303,2.405 -25.956,10.841 -42.054,16.718 3.415,-9.806 11.876,-26.17 30.554,-27.618 l 0.178,-0.018 c 0.1,-0.012 0.205,-0.018 0.317,-0.018 3.11,0 8.186,3.968 10.246,8.011 0.675,1.324 0.858,2.352 0.759,2.925 z"
   id="path3213" />
	
	
	
</g><g
       id="g3221"
       inkscape:transform-center-x="-62.841783"
       inkscape:transform-center-y="-12.9805">
	<path
   d="m 86.619,81.294 c -1.104,0 -2.181,0.321 -3.113,0.93 -1.277,0.834 -2.154,2.115 -2.467,3.608 -0.313,1.493 -0.027,3.019 0.807,4.296 1.059,1.622 2.85,2.59 4.791,2.59 1.105,0 2.181,-0.322 3.113,-0.93 1.278,-0.833 2.154,-2.115 2.468,-3.608 0.313,-1.493 0.027,-3.019 -0.807,-4.296 -1.06,-1.622 -2.851,-2.59 -4.792,-2.59 z"
   id="path3223"
   inkscape:connector-curvature="0"
   style="fill:none" />
	<path
   d="m 97.497,79.912 c -2.406,-3.686 -6.472,-5.886 -10.877,-5.886 -2.52,0 -4.97,0.73 -7.086,2.112 -2.903,1.895 -4.895,4.807 -5.608,8.2 -0.713,3.393 -0.062,6.86 1.833,9.763 2.406,3.686 6.472,5.886 10.877,5.886 2.52,0 4.97,-0.73 7.086,-2.112 2.904,-1.895 4.896,-4.807 5.608,-8.2 0.713,-3.393 0.062,-6.86 -1.833,-9.763 z m -5.28,8.268 c -0.314,1.493 -1.19,2.774 -2.468,3.608 -0.932,0.608 -2.008,0.93 -3.113,0.93 -1.941,0 -3.732,-0.968 -4.791,-2.59 -0.834,-1.278 -1.12,-2.804 -0.807,-4.296 0.313,-1.492 1.19,-2.774 2.467,-3.608 0.932,-0.608 2.009,-0.93 3.113,-0.93 1.941,0 3.732,0.968 4.791,2.59 0.835,1.278 1.121,2.804 0.808,4.296 z"
   id="path3225"
   inkscape:connector-curvature="0" />
</g><g
       id="g3227">
	
	<path
   inkscape:connector-curvature="0"
   d="m 139.258,65.052 c -2.406,-3.686 -6.473,-5.886 -10.879,-5.886 -2.519,0 -4.969,0.73 -7.086,2.112 -2.902,1.896 -4.895,4.807 -5.607,8.2 -0.712,3.393 -0.062,6.86 1.834,9.763 2.405,3.686 6.472,5.886 10.877,5.886 2.52,0 4.97,-0.73 7.086,-2.112 5.994,-3.911 7.686,-11.97 3.775,-17.963 z m -7.748,11.877 c -0.932,0.608 -2.008,0.93 -3.113,0.93 -1.941,0 -3.732,-0.968 -4.791,-2.59 -0.834,-1.277 -1.12,-2.803 -0.807,-4.296 0.314,-1.493 1.189,-2.774 2.468,-3.608 0.932,-0.608 2.009,-0.93 3.112,-0.93 1.941,0 3.732,0.969 4.791,2.59 1.722,2.637 0.976,6.183 -1.66,7.904 z"
   id="path3231" />
</g><circle
       d="m 100.662,41.153999 c 0,1.026145 -0.831854,1.858 -1.857999,1.858 -1.026145,0 -1.858,-0.831855 -1.858,-1.858 0,-1.026145 0.831855,-1.858 1.858,-1.858 1.026145,0 1.857999,0.831855 1.857999,1.858 z"
       sodipodi:ry="1.858"
       sodipodi:rx="1.858"
       sodipodi:cy="41.153999"
       sodipodi:cx="98.804001"
       cx="98.804001"
       cy="41.153999"
       r="1.858"
       id="circle3233" /><circle
       d="m 103.777,47.903999 c 0,1.026145 -0.83186,1.858 -1.858,1.858 -1.02615,0 -1.858,-0.831855 -1.858,-1.858 0,-1.026145 0.83185,-1.858 1.858,-1.858 1.02614,0 1.858,0.831855 1.858,1.858 z"
       sodipodi:ry="1.858"
       sodipodi:rx="1.858"
       sodipodi:cy="47.903999"
       sodipodi:cx="101.919"
       cx="101.919"
       cy="47.903999"
       r="1.858"
       id="circle3235" /><circle
       d="m 106.373,54.133999 c 0,1.026145 -0.83186,1.858 -1.858,1.858 -1.02615,0 -1.858,-0.831855 -1.858,-1.858 0,-1.026145 0.83185,-1.858 1.858,-1.858 1.02614,0 1.858,0.831855 1.858,1.858 z"
       sodipodi:ry="1.858"
       sodipodi:rx="1.858"
       sodipodi:cy="54.133999"
       sodipodi:cx="104.515"
       cx="104.515"
       cy="54.133999"
       r="1.858"
       id="circle3237" /><path
       style="fill:none"
       inkscape:connector-curvature="0"
       d="m 131.338,99.825 c -2.942,0.357 -5.722,0.964 -8.405,1.814 -10.377,3.29 -19.339,10.194 -30.932,20.135 0.146,0.146 0.294,0.293 0.44,0.439 3.401,3.39 6.932,6.915 10.187,10.175 2.155,2.158 4.187,4.197 5.977,6.003 0.089,0.089 0.181,0.182 0.269,0.271 0.377,0.014 0.758,0.021 1.139,0.021 2.567,0 5.141,-0.318 7.673,-0.854 6.548,-1.384 12.816,-4.265 17.938,-7.196 3.198,-1.83 5.954,-3.678 8.046,-5.186 1.258,-0.906 2.278,-1.689 3.014,-2.272 l 0.983,-23.005 c -6.111,-0.841 -11.446,-0.938 -16.329,-0.345 z"
       id="path3239" /><path
       style="fill:none"
       inkscape:connector-curvature="0"
       d="m 79.501,144.98 c 0.259,2.549 8.119,9.715 15.276,9.715 h 0 c 1.241,0 2.357,-0.235 3.318,-0.701 2.355,-1.14 4.66,-4.046 6.713,-7.63 l -0.727,-0.735 c -3.377,-3.414 -7.903,-7.948 -12.551,-12.59 -6.329,4.805 -11.599,9.948 -12.029,11.941 z"
       id="path3241" /><path
       style="fill:none"
       inkscape:connector-curvature="0"
       d="m 114.59,86.709 5.02,12.247 c 0.546,-0.202 1.097,-0.394 1.65,-0.577 2.664,-0.883 5.422,-1.542 8.324,-1.972 5.438,-0.805 11.389,-0.798 18.236,0.114 l 0.778,-18.208 -13.591,-36.386 c -2.602,-2.106 -11.939,-9.011 -22.521,-9.011 -1.197,0 -2.389,0.09 -3.541,0.267 -2.753,0.423 -8.492,1.305 -14.837,3.544 l 17.078,41.675 3.404,8.307 z"
       id="path3243" /><path
       style="fill:none"
       inkscape:connector-curvature="0"
       d="m 89.419,119.202 c 9.843,-8.442 18.024,-14.899 26.827,-18.868 l -5.584,-13.625 -3.404,-8.307 -16.54,-40.364 c -4.582,1.939 -9.257,4.634 -13.185,8.402 -8.011,7.686 -12.971,19.968 -14.448,23.992 l 13.045,34.925 0.376,1.006 c 0.964,0.957 2.945,2.924 5.522,5.484 2.133,2.122 4.672,4.647 7.391,7.355 z"
       id="path3245" /><polygon
       points="105.619,216.043 113.893,216.012 105.643,216.012 "
       id="polygon3247" /><path
       style="fill:none"
       inkscape:connector-curvature="0"
       d="m 13.466,59.397 -0.161,0.076 c -2.292,1.018 -5.033,6.4 -4.998,11.556 0.012,1.809 0.406,3.077 0.861,3.612 5.626,-0.199 28.889,-4.198 44.68,-7.2 -5.783,-4.846 -15.603,-11.304 -26.865,-11.304 -4.614,0 -9.162,1.097 -13.517,3.26 z"
       id="path3249" /><path
       style="fill:none"
       inkscape:connector-curvature="0"
       d="m 110.662,86.709 -3.404,-8.307 -16.54,-40.364 c -4.582,1.939 -9.257,4.634 -13.185,8.402 -6.087,5.84 -10.411,14.332 -12.786,19.84 -0.75,1.74 -1.308,3.186 -1.663,4.152 l 1.273,3.409 11.772,31.516 0.376,1.006 c 0.964,0.957 2.945,2.924 5.522,5.484 2.133,2.121 4.672,4.646 7.391,7.354 9.843,-8.442 18.024,-14.899 26.827,-18.868 l -5.583,-13.624 z"
       id="path3251" /><path
       style="fill:none"
       inkscape:connector-curvature="0"
       d="m 131.338,99.825 c -2.942,0.357 -5.722,0.964 -8.405,1.814 -10.377,3.29 -19.339,10.194 -30.932,20.135 0.146,0.146 0.294,0.293 0.44,0.439 3.401,3.39 6.932,6.915 10.187,10.175 2.155,2.158 4.187,4.197 5.977,6.003 0.089,0.089 0.181,0.182 0.269,0.271 0.377,0.014 0.758,0.021 1.139,0.021 2.567,0 5.141,-0.318 7.673,-0.854 6.548,-1.384 12.816,-4.265 17.938,-7.196 3.198,-1.83 5.954,-3.678 8.046,-5.186 1.258,-0.906 2.278,-1.689 3.014,-2.272 l 0.983,-23.005 c -6.111,-0.841 -11.446,-0.938 -16.329,-0.345 z"
       id="path3253" /><path
       style="fill:none"
       inkscape:connector-curvature="0"
       d="m 172.255,8.307 c -0.112,0 -0.218,0.006 -0.317,0.018 l -0.178,0.018 c -18.678,1.447 -27.139,17.812 -30.554,27.618 16.098,-5.877 37.751,-14.313 42.054,-16.718 0.1,-0.573 -0.084,-1.601 -0.759,-2.924 -2.061,-4.044 -7.136,-8.012 -10.246,-8.012 z"
       id="path3255" /><circle
       d="m 95.988997,180.29401 c 0,1.02614 -0.831855,1.858 -1.858,1.858 -1.026145,0 -1.858,-0.83186 -1.858,-1.858 0,-1.02615 0.831855,-1.858 1.858,-1.858 1.026145,0 1.858,0.83185 1.858,1.858 z"
       sodipodi:ry="1.858"
       sodipodi:rx="1.858"
       sodipodi:cy="180.29401"
       sodipodi:cx="94.130997"
       cx="94.130997"
       cy="180.29401"
       r="1.858"
       id="circle3257" /><circle
       d="m 98.066,173.026 c 0,1.02615 -0.831855,1.858 -1.858,1.858 -1.026145,0 -1.858,-0.83185 -1.858,-1.858 0,-1.02614 0.831855,-1.858 1.858,-1.858 1.026145,0 1.858,0.83186 1.858,1.858 z"
       sodipodi:ry="1.858"
       sodipodi:rx="1.858"
       sodipodi:cy="173.026"
       sodipodi:cx="96.208"
       cx="96.208"
       cy="173.026"
       r="1.858"
       id="circle3259" /><circle
       d="m 99.623999,166.27699 c 0,1.02615 -0.831855,1.858 -1.858,1.858 -1.026145,0 -1.858,-0.83185 -1.858,-1.858 0,-1.02614 0.831855,-1.858 1.858,-1.858 1.026145,0 1.858,0.83186 1.858,1.858 z"
       sodipodi:ry="1.858"
       sodipodi:rx="1.858"
       sodipodi:cy="166.27699"
       sodipodi:cx="97.765999"
       cx="97.765999"
       cy="166.27699"
       r="1.858"
       id="circle3261" /><circle
       d="m 143.754,102.937 c 0,1.02614 -0.83186,1.858 -1.858,1.858 -1.02615,0 -1.858,-0.83186 -1.858,-1.858 0,-1.02615 0.83185,-1.858 1.858,-1.858 1.02614,0 1.858,0.83185 1.858,1.858 z"
       sodipodi:ry="1.858"
       sodipodi:rx="1.858"
       sodipodi:cy="102.937"
       sodipodi:cx="141.896"
       cx="141.896"
       cy="102.937"
       r="1.858"
       id="circle3263" /><circle
       d="m 137.004,102.937 c 0,1.02614 -0.83186,1.858 -1.858,1.858 -1.02615,0 -1.858,-0.83186 -1.858,-1.858 0,-1.02615 0.83185,-1.858 1.858,-1.858 1.02614,0 1.858,0.83185 1.858,1.858 z"
       sodipodi:ry="1.858"
       sodipodi:rx="1.858"
       sodipodi:cy="102.937"
       sodipodi:cx="135.146"
       cx="135.146"
       cy="102.937"
       r="1.858"
       id="circle3265" /><path
       style="fill:none"
       inkscape:connector-curvature="0"
       d="m 75.398,187.761 c -0.509,-0.026 -1.014,-0.04 -1.5,-0.04 -4.649,0 -8.16,1.173 -10.689,3.571 -0.32,0.304 -0.627,0.625 -0.917,0.969 -1.732,2.06 -2.57,4.647 -3.154,7.255 -0.705,3.146 -0.496,6.229 -0.496,8.542 0,0.015 0,-0.046 0,-0.046 h 13.947 3.114 17.266 c 0.146,-4 -0.268,-9.859 -3.816,-14.357 -2.876,-3.647 -7.504,-5.568 -13.755,-5.894 z"
       id="path3273" /><path
       style="fill:none"
       inkscape:connector-curvature="0"
       d="m 154.953,186.258 c -4.193,-1.092 -7.791,-1.682 -10.729,-1.771 l -1.908,9.321 c 1.902,5.125 2.176,10.534 2.047,14.314 1.803,-0.002 3.592,-0.096 5.331,-0.096 9.325,0 15.49,-0.016 18.323,-0.016 h 0.02 l 0,0 c 0.004,0 0.01,0 0.014,0 0.4,0 1.052,-2.906 -0.024,-7.09 -1.445,-5.611 -5.736,-12.752 -13.074,-14.662 z"
       id="path3275" /><path
       style="fill:none"
       inkscape:connector-curvature="0"
       d="m 120.423,187.721 c -0.486,0 -0.991,0.014 -1.499,0.04 -6.27,0.327 -10.905,2.259 -13.78,5.925 -3.507,4.474 -3.923,10.326 -3.784,14.326 h 10.422 2.584 12.543 l 0.047,0.051 c 2.811,-0.008 5.904,0.031 9.096,0.025 0.187,-4.227 -0.178,-11.3 -4.039,-15.869 -2.572,-3.042 -6.363,-4.498 -11.59,-4.498 z"
       id="path3277" /><path
       style="fill:none"
       inkscape:connector-curvature="0"
       d="m 34.652,177.241 c 3.124,-0.636 5.952,-0.989 8.457,-1.059 l -7.968,-10.768 -4.672,-16.276 c -0.094,0.007 -0.188,0.014 -0.283,0.021 -1.568,5.403 -2.458,11.955 -0.281,17.556 1.26,3.24 2.933,6.873 4.747,10.526 z"
       id="path3281" /><path
       style="fill:none"
       inkscape:connector-curvature="0"
       d="m 75.398,187.761 c -0.509,-0.026 -1.014,-0.04 -1.5,-0.04 -4.649,0 -8.16,1.173 -10.689,3.571 -0.32,0.304 -0.627,0.625 -0.917,0.969 -1.732,2.06 -2.57,4.647 -3.154,7.255 -0.705,3.146 -0.496,6.229 -0.496,8.542 0,0.015 0,-0.046 0,-0.046 h 13.947 3.114 17.266 c 0.146,-4 -0.268,-9.859 -3.816,-14.357 -2.876,-3.647 -7.504,-5.568 -13.755,-5.894 z"
       id="path3283" /><path
       style="fill:none"
       inkscape:connector-curvature="0"
       d="m 154.953,186.258 c -4.193,-1.092 -7.791,-1.682 -10.729,-1.771 l -1.908,9.321 c 1.902,5.125 2.176,10.534 2.047,14.314 1.803,-0.002 3.592,-0.096 5.331,-0.096 9.325,0 15.49,-0.016 18.323,-0.016 h 0.02 l 0,0 c 0.004,0 0.01,0 0.014,0 0.4,0 1.052,-2.906 -0.024,-7.09 -1.445,-5.611 -5.736,-12.752 -13.074,-14.662 z"
       id="path3285" /><path
       style="fill:none"
       inkscape:connector-curvature="0"
       d="m 120.423,187.721 c -0.486,0 -0.991,0.014 -1.499,0.04 -6.27,0.327 -10.905,2.259 -13.78,5.925 -3.507,4.474 -3.923,10.326 -3.784,14.326 h 10.422 2.584 12.543 l 0.047,0.051 c 2.811,-0.008 5.904,0.031 9.096,0.025 0.187,-4.227 -0.178,-11.3 -4.039,-15.869 -2.572,-3.042 -6.363,-4.498 -11.59,-4.498 z"
       id="path3287" /><path
       inkscape:connector-curvature="0"
       d="m 108.186,123.704 c 0,0 21.818,-11.248 28.846,-12.353 1.49,6.25 -14.518,24.075 -28.846,12.353 z"
       id="path3291" /></g><rect
     ry="1.1401738"
     rx="1.1401738"
     y="0.99999923"
     x="1"
     height="242.19315"
     width="226.59738"
     id="rect3270"
     style="fill:none;stroke:#000000;stroke-width:2;stroke-linecap:round;stroke-linejoin:round;stroke-miterlimit:4;stroke-opacity:1;stroke-dasharray:none" /></g></svg>