<?xml version="1.0" encoding="UTF-8" standalone="no"?>
<!-- Created with Inkscape (http://www.inkscape.org/) -->
<svg
   xmlns:dc="http://purl.org/dc/elements/1.1/"
   xmlns:cc="http://web.resource.org/cc/"
   xmlns:rdf="http://www.w3.org/1999/02/22-rdf-syntax-ns#"
   xmlns:svg="http://www.w3.org/2000/svg"
   xmlns="http://www.w3.org/2000/svg"
   xmlns:sodipodi="http://inkscape.sourceforge.net/DTD/sodipodi-0.dtd"
   xmlns:inkscape="http://www.inkscape.org/namespaces/inkscape"
   width="280pt"
   height="95pt"
   id="svg1351"
   sodipodi:version="0.32"
   inkscape:version="0.43"
   version="1.0"
   sodipodi:docbase="E:\Program Files\Inkscape"
   sodipodi:docname="bat.svg">
  <defs
     id="defs1353" />
  <sodipodi:namedview
     id="base"
     pagecolor="#ffffff"
     bordercolor="#666666"
     borderopacity="1.0"
     inkscape:pageopacity="0.0"
     inkscape:pageshadow="2"
     inkscape:zoom="1.26175"
     inkscape:cx="211.42857"
     inkscape:cy="75.714286"
     inkscape:document-units="px"
     inkscape:current-layer="layer1"
     inkscape:window-width="812"
     inkscape:window-height="540"
     inkscape:window-x="44"
     inkscape:window-y="44" />
  <metadata
     id="metadata1356">
    <rdf:RDF>
      <cc:Work
         rdf:about="">
        <dc:format>image/svg+xml</dc:format>
        <dc:type
           rdf:resource="http://purl.org/dc/dcmitype/StillImage" />
        <cc:license
           rdf:resource="http://web.resource.org/cc/PublicDomain" />
      </cc:Work>
      <cc:License
         rdf:about="http://web.resource.org/cc/PublicDomain">
        <cc:permits
           rdf:resource="http://web.resource.org/cc/Reproduction" />
        <cc:permits
           rdf:resource="http://web.resource.org/cc/Distribution" />
        <cc:permits
           rdf:resource="http://web.resource.org/cc/DerivativeWorks" />
      </cc:License>
    </rdf:RDF>
  </metadata>
  <g
     inkscape:label="Layer 1"
     inkscape:groupmode="layer"
     id="layer1">
    <path
       style="font-size:147.61283875px;font-style:normal;font-weight:normal;line-height:125%;fill:#000000;fill-opacity:1;stroke:none;stroke-width:1px;stroke-linecap:butt;stroke-linejoin:miter;stroke-opacity:1;font-family:Bitstream Vera Sans"
       d="M 56.400129,1.388259 C 65.94629,0.61696285 76.504988,4.0401012 88.076242,11.657683 C 94.440304,15.804134 103.31154,23.373605 114.68998,34.366135 C 125.87532,44.97312 134.84298,52.397964 141.59297,56.640666 C 147.95698,61.944173 152.19974,64.595907 154.32127,64.595849 C 157.40677,64.595907 158.85317,63.004871 158.66047,59.822739 C 155.57467,57.219283 154.03184,54.326493 154.032,51.144352 C 154.03184,48.637333 154.89968,46.467739 156.63551,44.635559 C 158.37103,42.707108 160.49241,41.742838 162.99966,41.74276 C 165.41016,41.742838 167.57976,42.899954 169.50845,45.214117 C 170.37613,46.274883 171.19575,48.058775 171.96733,50.565794 C 176.98134,50.180151 179.82592,49.987295 180.50108,49.987236 C 183.00799,44.49099 186.28648,41.742838 190.33658,41.74276 C 191.10781,41.742838 192.07207,41.887475 193.22938,42.176681 C 196.98982,43.141019 198.87014,45.45526 198.87033,49.119394 C 198.87014,53.844354 196.98982,57.412138 193.22938,59.822739 L 195.68826,64.017291 C 204.84857,61.799536 215.55191,55.387181 227.79829,44.780196 L 258.89585,18.021839 C 271.52745,9.0542757 284.06289,4.5704499 296.5022,4.5703422 C 303.15532,4.5704499 309.95338,5.7275656 316.89641,8.0416892 C 334.83141,14.020241 345.53474,22.746828 349.00644,34.221498 C 340.90627,33.546591 334.63855,34.125148 330.20327,35.957172 C 316.60681,41.549982 309.08555,53.121159 307.63945,70.670721 C 304.26422,68.549384 302.19105,67.295841 301.41994,66.91009 C 299.10541,65.560167 296.93581,64.595907 294.91115,64.017291 C 290.6681,62.763806 286.61819,62.137029 282.76142,62.13697 C 274.66131,62.137029 267.52575,64.451261 261.35473,69.079684 C 255.18317,73.708206 251.18148,79.927705 249.34962,87.738221 C 249.06009,88.895366 248.62617,90.534612 248.04786,92.655981 C 241.58705,87.545395 234.69255,84.990098 227.36437,84.990059 C 222.92853,84.990098 218.87862,86.098995 215.21463,88.316779 C 207.98244,92.752429 204.36644,100.17726 204.36665,110.59131 C 204.36644,112.7127 204.51108,114.83408 204.80057,116.95546 C 204.02895,112.327 202.34148,108.56637 199.73817,105.67356 C 196.84518,102.39507 193.18098,100.75582 188.74555,100.7558 C 184.11689,100.75582 179.72949,102.68435 175.58332,106.5414 C 171.91894,102.10579 167.04941,99.887979 160.97471,99.887969 C 154.2247,99.887979 149.78908,102.92542 147.66784,109.00028 C 146.79986,111.41095 145.98024,114.06267 145.20897,116.95546 C 145.69096,113.58054 145.93202,110.39847 145.93217,107.40923 C 145.93202,95.934502 142.26782,88.365017 134.93954,84.700785 C 131.27521,82.868713 127.41815,81.952662 123.36836,81.952633 C 115.36484,81.952662 108.03644,85.086526 101.38312,91.354215 C 100.12946,82.483011 95.983132,75.058167 88.944084,69.079684 C 82.001292,63.101299 74.046109,60.112072 65.078517,60.112023 C 56.785782,60.112072 49.409158,63.05308 42.948633,68.935047 C 42.948584,57.36392 40.104003,47.962347 34.414882,40.730281 C 28.243553,32.726968 19.516966,28.725272 8.2350734,28.725184 C 5.9208323,28.725272 3.510173,28.918128 1.0030854,29.303742 C 20.963356,12.043503 39.429018,2.7383482 56.400129,1.388259"
       id="text1307" />
  </g>
</svg>
